<svg width="158" height="67" viewBox="0 0 158 67" fill="none" xmlns="http://www.w3.org/2000/svg">
<g clip-path="url(#clip0)">
<path d="M95.9467 49.7124C93.0046 52.9508 89.2497 54.8421 82.9498 54.8421H66.0068V12.2393H82.4828C85.7007 12.2393 89.8381 12.4873 93.604 14.8671C98.8925 18.2313 101.235 24.0975 101.235 32.7764C101.235 39.3828 100.161 45.1231 95.9467 49.7124ZM81.6774 21.2144H77.9997V45.7264H82.012C85.3587 45.7264 88.0397 44.1942 88.0397 32.4026C88.0434 22.5097 85.2962 21.2255 81.6774 21.2255V21.2144Z" fill="black"/>
<path d="M74.1638 60.4121C65.4396 61.6695 56.6411 62.3335 47.8281 62.3996C56.6456 62.4548 65.4531 61.7901 74.1638 60.4121Z" fill="black"/>
<path d="M156.503 15.2335C156.135 9.49319 150.667 5.24069 141.752 2.68697C128.582 -1.05479 107.87 -1.01408 84.8254 3.63443C77.1839 5.17962 69.64 7.17922 62.2335 9.62272C46.6071 14.8042 33.6433 21.4661 25.5524 28.3241C37.9793 19.7266 57.6328 11.8397 80.0114 7.32067C118.667 -0.510735 150.784 4.68183 151.693 18.8975C152.005 23.7311 148.677 28.9755 142.638 34.1088C151.678 27.8504 156.897 21.2181 156.503 15.2335Z" fill="black"/>
<path d="M101.007 51.7258C101.165 51.8035 101.331 51.8701 101.493 51.9441C107.296 50.3527 112.827 48.5429 117.987 46.5776C113.342 46.4962 108.495 44.901 105.233 43.1689L101.007 51.7258Z" fill="black"/>
<path d="M126.39 28.1946L121.639 27.0843C118.156 26.2922 117.082 24.8858 117.082 23.4794C117.082 21.7696 118.759 20.4224 121.838 20.4224C125.537 20.52 129.153 21.5495 132.356 23.4165L138.111 15.6443C133.959 13.0203 127.931 11.4881 121.44 11.4881C110.992 11.4881 103.354 17.11 103.354 25.552C103.354 32.8875 107.976 36.248 114.754 37.895L120.245 39.183C123.459 39.975 124.934 40.7707 124.934 42.6657C124.937 43.0543 124.876 43.4408 124.754 43.8093C129.405 41.8029 133.923 39.4973 138.28 36.9068C136.754 30.9074 130.745 29.2013 126.39 28.1946Z" fill="black"/>
<path d="M44.6763 55.5749C36.9091 55.5749 31.5544 53.3172 27.6046 48.3023C24.4565 44.2719 23.1914 40.16 23.1914 34.3679C23.1693 25.2596 27.1338 17.4356 34.9011 13.7679C38.3838 12.1172 41.3296 11.5473 45.5663 11.5473C51.6529 11.5473 57.3349 13.3978 61.8363 16.9286L55.2165 23.7126C52.7378 21.5142 49.255 20.4113 45.7097 20.4113C39.4099 20.4113 36.8833 24.3899 36.8833 33.9201C36.8833 42.4325 39.6342 46.5739 45.1912 46.5739C46.7285 46.5739 48.2694 46.4518 49.5419 45.9633V39.2607H43.8084L42.466 30.578H61.4906V51.3594C56.1323 54.3572 50.7077 55.5749 44.6763 55.5749Z" fill="black"/>
<path d="M105.233 43.1689L101.011 51.7258C101.165 51.8035 101.331 51.8701 101.493 51.9441C107.3 50.3527 112.827 48.5429 117.991 46.5776C113.342 46.4962 108.491 44.901 105.233 43.1689Z" fill="black"/>
<path d="M88.3744 57.9769C83.5297 58.9638 78.7928 59.7756 74.1639 60.4122C65.4531 61.7902 56.6456 62.4549 47.8281 62.3996C22.8015 62.4736 5.51651 56.5409 4.83246 45.893C4.58606 42.0624 6.50212 37.9727 10.1798 33.8461C3.40185 39.4828 -0.319954 45.2194 0.0220693 50.4749C1.05549 66.2672 38.4537 71.6892 83.5603 62.5736C93.0978 60.6558 102.51 58.1555 111.746 55.0864C109.805 54.7835 107.89 54.3281 106.02 53.7244C106.046 53.717 94.483 56.7407 88.3744 57.9769Z" fill="black"/>
<path d="M158 29.5269C153.017 33.6795 138.541 41.6109 138.567 41.5998C138.494 42.3909 138.361 43.1753 138.17 43.9462C146.82 39.331 153.649 34.4197 158 29.5269Z" fill="black"/>
<path d="M118.222 55.5748C129.686 55.5748 137.732 50.7635 138.567 41.5997C129.248 46.1409 118.182 50.3083 106.02 53.7243C109.966 54.9819 114.084 55.6064 118.222 55.5748Z" fill="black"/>
</g>
<defs>
<clipPath id="clip0">
<rect width="158" height="67" fill="black"/>
</clipPath>
</defs>
</svg>
